<svg width="725.91" height="132.89" xmlns="http://www.w3.org/2000/svg">
 <defs>
  <filter id="_blur">
   <feGaussianBlur stdDeviation="0" in="SourceGraphic"/>
  </filter>
 </defs>
 <g>
  <title>Layer 1</title>
  <g filter="url(#_blur)" stroke="null">
   <!-- 修改viewBox -->
   <title stroke="null">GitHub Pages</title>
   <path stroke="null" d="m414.36684,99.56132l-8.70617,0l0,-96.12087l29.35393,0c23.97139,0 32.17755,13.82399 32.17755,28.8245s-8.23557,28.8245 -32.17755,28.8245l-20.61834,0l0,38.47188l-0.02941,0zm0,-46.53097l21.76544,0a18.88299,18.88299 0 0 0 21.55955,-20.73599a18.88299,18.88299 0 0 0 -21.53013,-20.7654l-21.79485,0l0,41.50139zm84.73814,-10.88272a56.26659,56.26659 0 0 0 -19.20653,3.2354l0,-7.70614a51.64879,51.64879 0 0 1 19.20653,-3.4707c19.23594,0 24.23611,8.73559 24.23611,21.53013l0,43.825l-5.00017,0l-1.94124,-5.11782a33.61878,33.61878 0 0 1 -19.32418,6.41198a19.50065,19.50065 0 0 1 -22.44193,-20.64775c0,-10.88272 6.02961,-18.97122 22.8243,-20.00067l16.91233,-1.02945l0,-3.58836c0,-9.35326 -3.32364,-13.44163 -15.26522,-13.44163zm-2.29419,25.00084c-9.11795,0.88238 -13.08867,5.64725 -13.08867,13.08867c0,5.7649 1.41181,12.6769 13.58869,12.6769a31.05987,31.05987 0 0 0 17.0594,-5.11782l0,-22.29487l-17.55941,1.64711zm54.70772,14.50049a7.41201,7.41201 0 0 0 -2.44126,4.70604c0,3.2354 1.55888,4.64721 4.88252,5.00017l21.76544,2.58832c12.05923,1.29416 17.58883,6.02961 17.58883,17.17705c0,15.64758 -15.64758,21.76544 -33.32465,21.76544c-17.94178,0 -28.70685,-5.23547 -28.70685,-19.32418a17.91237,17.91237 0 0 1 13.20633,-16.91233l0,-0.14706a9.44149,9.44149 0 0 1 -4.11779,-8.44146a11.5298,11.5298 0 0 1 4.88252,-8.73559a21.94191,21.94191 0 0 1 -10.26505,-21.0007c0,-13.20633 5.64725,-24.11846 25.00084,-24.11846a40.00134,40.00134 0 0 1 10.26505,1.29416l21.76544,0l0,4.8531l-10.73565,3.08834a26.70678,26.70678 0 0 1 3.70601,14.85344c0,13.20633 -5.64725,24.11846 -25.00084,24.11846a41.08961,41.08961 0 0 1 -8.47087,-0.79414l0,0.02941zm3.73542,17.2947c-8.47087,1.91183 -15.64758,5.88255 -15.64758,14.11812c0,9.47091 7.17671,12.14747 20.38304,12.14747c12.79455,0 24.85378,-3.20599 24.85378,-14.11812c0,-6.50022 -3.08834,-9.08854 -10.88272,-10.00034l-18.70651,-2.14713zm21.38307,-40.61901c0,-8.47087 -1.64711,-16.29466 -16.64762,-16.29466c-15.0005,0 -16.67703,7.82379 -16.67703,16.29466c0,8.47087 1.67653,16.26525 16.67703,16.26525c15.0005,0 16.64762,-7.82379 16.64762,-16.29466l0,0.02941zm48.14867,-24.11846c21.76544,0 24.35376,14.88285 24.35376,33.32465l0,4.11779l-42.29554,0c0.52943,11.14743 3.4707,21.26542 17.94178,21.26542a48.97223,48.97223 0 0 0 21.14777,-3.58836l0,7.67673a51.91351,51.91351 0 0 1 -21.14777,3.85307c-21.64779,0 -26.91267,-14.85344 -26.91267,-33.32465s5.26488,-33.32465 26.91267,-33.32465zm-17.94178,30.11866l33.32465,0c0,-11.38273 -0.64708,-22.1478 -15.38287,-22.1478c-14.88285,0 -17.55941,10.58859 -17.94178,22.1478zm76.50257,-1.52946c18.20649,1.67653 22.55958,7.82379 22.55958,18.32414c0,9.88268 -6.26492,19.73596 -25.76557,19.73596a63.14918,63.14918 0 0 1 -19.08888,-3.20599l0,-7.67673a56.59013,56.59013 0 0 0 19.23594,2.94128c13.32398,0 16.91233,-5.64725 16.91233,-11.67686c0,-5.88255 -1.79418,-10.00034 -14.47107,-11.00037c-18.58886,-1.67653 -22.44193,-8.23557 -22.44193,-17.0594c0,-9.11795 5.88255,-18.97122 23.97139,-18.97122a47.85455,47.85455 0 0 1 18.4418,3.2354l0,7.64732a52.91354,52.91354 0 0 0 -18.55945,-2.94128c-12.70631,0 -15.38287,4.76487 -15.38287,11.05919c0,5.58842 2.29419,8.5297 14.58872,9.58856zm-611.40287,-19.383l-31.35399,0a1.47064,1.47064 0 0 0 -1.47064,1.47064l0,15.35346a1.47064,1.47064 0 0 0 1.47064,1.47064l12.2357,0l0,19.08888a37.26596,37.26596 0 0 1 -10.32388,0.94121c-8.97089,0 -21.50072,-3.29423 -21.50072,-30.82456s13.02985,-31.17752 25.29497,-31.17752a49.70755,49.70755 0 0 1 18.05943,2.7648a1.47064,1.47064 0 0 0 1.76477,-1.47064l3.52953,-14.82403a1.3824,1.3824 0 0 0 -0.58826,-1.1471a50.44287,50.44287 0 0 0 -26.55971,-4.8531c-21.03012,0 -42.50143,8.88265 -42.50143,51.76644s24.61847,49.26636 45.35446,49.26636a51.06054,51.06054 0 0 0 27.58916,-7.35319a1.26475,1.26475 0 0 0 0.4706,-1.11768l0,-47.88396a1.47064,1.47064 0 0 0 -1.47064,-1.47064zm163.09371,-38.0601a1.47064,1.47064 0 0 0 -1.47064,-1.47064l-17.67706,0a1.47064,1.47064 0 0 0 -1.47064,1.47064l0,34.1482l-27.53034,0l0,-34.1482a1.47064,1.47064 0 0 0 -1.47064,-1.47064l-17.64765,0a1.47064,1.47064 0 0 0 -1.47064,1.47064l0,92.5031a1.47064,1.47064 0 0 0 1.47064,1.47064l17.64765,0a1.47064,1.47064 0 0 0 1.47064,-1.47064l0,-39.56015l27.55975,0l-0.05883,39.56015a1.47064,1.47064 0 0 0 1.47064,1.47064l17.73589,0a1.47064,1.47064 0 0 0 1.47064,-1.47064l-0.02941,-92.5031zm-129.09257,12.11805a11.41215,11.41215 0 1 0 -11.38273,11.5298a11.47097,11.47097 0 0 0 11.38273,-11.5298zm-1.23534,60.82557l0,-42.6779a1.47064,1.47064 0 0 0 -1.47064,-1.47064l-17.64765,0a1.67653,1.67653 0 0 0 -1.50005,1.64711l0,61.17852c0,1.76477 1.11768,2.32361 2.55891,2.32361l15.88289,0c1.76477,0 2.17654,-0.88238 2.17654,-2.35302l0,-18.64768zm198.94785,-44.03089l-17.55941,0a1.47064,1.47064 0 0 0 -1.47064,1.47064l0,45.35446a19.79478,19.79478 0 0 1 -10.79448,3.2354c-6.32374,0 -8.00027,-2.85304 -8.00027,-9.02971l0,-39.53074a1.47064,1.47064 0 0 0 -1.47064,-1.47064l-17.7653,0a1.47064,1.47064 0 0 0 -1.47064,1.47064l0,42.53084c0,18.41238 10.23564,22.91253 24.35376,22.91253a41.11903,41.11903 0 0 0 20.88305,-6.38257a37.47185,37.47185 0 0 0 0.64708,3.76483a1.52946,1.52946 0 0 0 1.29416,0.79414l11.32391,-0.05883a1.47064,1.47064 0 0 0 1.47064,-1.47064l0,-62.11973a1.47064,1.47064 0 0 0 -1.47064,-1.47064l0.02941,0zm48.88399,-2.05889a32.97169,32.97169 0 0 0 -16.73586,4.41191l0,-31.26575a1.47064,1.47064 0 0 0 -1.47064,-1.47064l-17.70648,0a1.47064,1.47064 0 0 0 -1.47064,1.47064l0,92.5031a1.47064,1.47064 0 0 0 1.47064,1.47064l12.29453,0a1.47064,1.47064 0 0 0 1.29416,-0.79414a28.61861,28.61861 0 0 0 0.73532,-4.23544a31.76577,31.76577 0 0 0 20.97129,6.85317c16.11819,0 25.35379,-8.17674 25.35379,-36.70711s-14.7652,-32.20696 -24.73612,-32.20696l0,-0.02941zm-6.912,52.08998a21.05953,21.05953 0 0 1 -10.20622,-2.94128l0,-29.2951a23.32431,23.32431 0 0 1 9.05913,-2.94128c6.32374,-0.55884 12.41218,1.35299 12.41218,16.41232c0,15.88289 -2.7648,19.03005 -11.26508,18.79475l0,-0.02941zm-190.44757,-50.17815l-13.23574,0l-0.05883,-17.50059c0,-0.67649 -0.32354,-1.00003 -1.08827,-1.00003l-18.08884,0c-0.70591,0 -1.05886,0.29413 -1.05886,0.97062l0,18.08884l-9.70621,2.35302a1.47064,1.47064 0 0 0 -1.02945,1.41181l0,11.38273a1.47064,1.47064 0 0 0 1.47064,1.47064l9.26502,0l0,27.35386c0,20.35362 14.23577,22.35369 23.88315,22.35369a40.44253,40.44253 0 0 0 10.50035,-1.76477a1.35299,1.35299 0 0 0 0.82356,-1.29416l0.02941,-12.52983a1.47064,1.47064 0 0 0 -1.47064,-1.47064c-0.76473,0 -2.7648,0.29413 -4.79428,0.29413c-6.50022,0 -8.70617,-3.0001 -8.70617,-6.94141l0,-26.00087l13.26515,0a1.47064,1.47064 0 0 0 1.47064,-1.47064l0,-14.23577a1.47064,1.47064 0 0 0 -1.47064,-1.47064z"/>
  </g>
 </g>
</svg>
